<svg width="20" height="20" viewBox="0 0 20 20" fill="none" xmlns="http://www.w3.org/2000/svg">
<g clip-path="url(#clip0_5_2878)">
<path d="M9.99996 18.3334C14.6023 18.3334 18.3333 14.6025 18.3333 10.0001C18.3333 5.39771 14.6023 1.66675 9.99996 1.66675C5.39759 1.66675 1.66663 5.39771 1.66663 10.0001C1.66663 14.6025 5.39759 18.3334 9.99996 18.3334Z" stroke="#9DAAB7" stroke-width="1.5" stroke-linecap="round" stroke-linejoin="round"/>
<path d="M1.75 11.1667C3.02542 11.3298 4.32126 11.1986 5.53807 10.7831C6.75489 10.3675 7.86032 9.67873 8.76952 8.76952C9.67873 7.86032 10.3675 6.75489 10.7831 5.53807C11.1986 4.32126 11.3298 3.02542 11.1667 1.75" stroke="#9DAAB7" stroke-width="1.5" stroke-linecap="round" stroke-linejoin="round"/>
<path d="M4.16663 4.08337L15.8333 15.9167" stroke="#9DAAB7" stroke-width="1.5" stroke-linecap="round" stroke-linejoin="round"/>
<path d="M18.25 8.83342C16.9746 8.67026 15.6787 8.80148 14.4619 9.21702C13.2451 9.63256 12.1396 10.3214 11.2304 11.2306C10.3212 12.1398 9.63243 13.2452 9.2169 14.462C8.80136 15.6788 8.67014 16.9747 8.8333 18.2501" stroke="#9DAAB7" stroke-width="1.5" stroke-linecap="round" stroke-linejoin="round"/>
</g>
<defs>
<clipPath id="clip0_5_2878">
<rect width="20" height="20" fill="white"/>
</clipPath>
</defs>
</svg>
