<svg width="20" height="20" viewBox="0 0 20 20" fill="none" xmlns="http://www.w3.org/2000/svg">
<path d="M10.0001 4.16676C10.5584 4.16676 11.1251 4.24176 11.6667 4.38343C13.1501 2.71676 15.8584 2.01676 17.0167 2.5001C18.1834 2.98343 16.6667 8.33343 16.6667 8.33343C17.1417 9.2251 17.5001 10.2001 17.5001 11.2001C17.5001 14.9168 14.1417 17.5001 10.0001 17.5001C5.8584 17.5001 2.50007 15.0001 2.50007 11.2001C2.50007 10.1584 2.91673 9.2001 3.3334 8.33343C3.3334 8.33343 1.7584 2.98343 2.91673 2.5001C4.07507 2.01676 6.85007 2.69176 8.3334 4.35843C8.88009 4.23269 9.43911 4.1684 10.0001 4.16676Z" stroke="#9DAAB7" stroke-width="1.5" stroke-linecap="round" stroke-linejoin="round"/>
<path d="M6.66663 11.6667V12.0834" stroke="#9DAAB7" stroke-width="1.5" stroke-linecap="round" stroke-linejoin="round"/>
<path d="M13.3334 11.6667V12.0834" stroke="#9DAAB7" stroke-width="1.5" stroke-linecap="round" stroke-linejoin="round"/>
<path d="M9.375 13.5417H10.625L10 14.1667L9.375 13.5417Z" stroke="#9DAAB7" stroke-width="1.5" stroke-linecap="round" stroke-linejoin="round"/>
</svg>
