<svg width="20" height="20" viewBox="0 0 20 20" fill="none" xmlns="http://www.w3.org/2000/svg">
<g clip-path="url(#clip0_5_2872)">
<path d="M9.99996 11.6667L9.16663 12.5001" stroke="#9DAAB7" stroke-width="1.5" stroke-linecap="round" stroke-linejoin="round"/>
<path d="M11.4583 15.2083L10.4166 16.3916" stroke="#9DAAB7" stroke-width="1.5" stroke-linecap="round" stroke-linejoin="round"/>
<path d="M14.8125 4.71167C12.3302 5.23315 10.0534 6.46582 8.25982 8.25928C6.46621 10.0527 5.23336 12.3295 4.71167 14.8117" stroke="#9DAAB7" stroke-width="1.5" stroke-linecap="round" stroke-linejoin="round"/>
<path d="M15.6667 7.75C14.8158 7.98206 14.0919 8.54264 13.6544 9.30842C13.2168 10.0742 13.1013 10.9824 13.3334 11.8333C13.5654 12.6842 14.126 13.4081 14.8918 13.8457C15.6576 14.2833 16.5658 14.3987 17.4167 14.1667" stroke="#9DAAB7" stroke-width="1.5" stroke-linecap="round" stroke-linejoin="round"/>
<path d="M18.3033 17.2767C18.3431 17.419 18.3442 17.5693 18.3067 17.7122C18.2692 17.8551 18.1944 17.9855 18.0899 18.0899C17.9855 18.1944 17.8551 18.2692 17.7122 18.3067C17.5693 18.3442 17.419 18.3431 17.2767 18.3033L2.27667 14.1367C2.17122 14.1073 2.07258 14.0575 1.9864 13.99C1.90022 13.9225 1.82818 13.8387 1.77439 13.7433C1.72061 13.648 1.68614 13.543 1.67294 13.4343C1.65975 13.3256 1.6681 13.2154 1.6975 13.11C2.45438 10.3852 3.90299 7.90237 5.90268 5.90268C7.90237 3.90299 10.3852 2.45438 13.11 1.6975C13.2154 1.6681 13.3256 1.65975 13.4343 1.67294C13.543 1.68614 13.648 1.72061 13.7433 1.77439C13.8387 1.82818 13.9225 1.90022 13.99 1.9864C14.0575 2.07258 14.1073 2.17122 14.1367 2.27667L18.3033 17.2767Z" stroke="#9DAAB7" stroke-width="1.5" stroke-linecap="round" stroke-linejoin="round"/>
</g>
<defs>
<clipPath id="clip0_5_2872">
<rect width="20" height="20" fill="white"/>
</clipPath>
</defs>
</svg>
