<svg width="20" height="20" viewBox="0 0 20 20" fill="none" xmlns="http://www.w3.org/2000/svg">
<g clip-path="url(#clip0_5_2883)">
<path d="M2.1667 8.66666C1.83739 9.00039 1.65414 9.45127 1.65727 9.92012C1.66039 10.389 1.84964 10.8374 2.18337 11.1667C2.5171 11.496 2.96798 11.6792 3.43682 11.6761C3.90566 11.673 4.35406 11.4837 4.68337 11.15L10 5.83333L15.3334 11.1667C15.4987 11.3297 15.6945 11.4585 15.9096 11.5459C16.1247 11.6332 16.3548 11.6773 16.587 11.6757C16.8191 11.6741 17.0487 11.6267 17.2625 11.5364C17.4764 11.446 17.6704 11.3145 17.8334 11.1492C17.9964 10.9839 18.1252 10.7881 18.2126 10.573C18.2999 10.3579 18.344 10.1277 18.3424 9.89554C18.3408 9.66339 18.2934 9.43384 18.2031 9.21999C18.1127 9.00613 17.9812 8.81217 17.8159 8.64916L11.4167 2.25C11.2306 2.06326 11.0094 1.91516 10.7659 1.8142C10.5224 1.71325 10.2613 1.66143 9.99767 1.66174C9.73405 1.66205 9.47308 1.71448 9.22979 1.81601C8.9865 1.91753 8.76568 2.06616 8.58003 2.25333L2.1667 8.66666Z" stroke="#9DAAB7" stroke-width="1.5" stroke-linecap="round" stroke-linejoin="round"/>
<path d="M16.6667 11.6667V16.6667C16.6667 17.1088 16.4911 17.5327 16.1786 17.8453C15.866 18.1578 15.4421 18.3334 15 18.3334H5.00004C4.55801 18.3334 4.13409 18.1578 3.82153 17.8453C3.50897 17.5327 3.33337 17.1088 3.33337 16.6667V11.6667" stroke="#9DAAB7" stroke-width="1.5" stroke-linecap="round" stroke-linejoin="round"/>
<path d="M11.6667 18.3334V13.3334C11.6667 12.8914 11.4911 12.4675 11.1786 12.1549C10.866 11.8423 10.4421 11.6667 10 11.6667C9.55801 11.6667 9.13409 11.8423 8.82153 12.1549C8.50897 12.4675 8.33337 12.8914 8.33337 13.3334V18.3334" stroke="#9DAAB7" stroke-width="1.5" stroke-linecap="round" stroke-linejoin="round"/>
</g>
<defs>
<clipPath id="clip0_5_2883">
<rect width="20" height="20" fill="white"/>
</clipPath>
</defs>
</svg>
